<?xml version="1.0" encoding="utf-8"?>
<!-- Generator: Adobe Illustrator 27.8.1, SVG Export Plug-In . SVG Version: 6.00 Build 0)  -->
<svg version="1.1" xmlns="http://www.w3.org/2000/svg" xmlns:xlink="http://www.w3.org/1999/xlink" x="0px" y="0px"
	 viewBox="0 0 920 1240" style="enable-background:new 0 0 920 1240;" xml:space="preserve">
<style type="text/css">
	.st0{fill:#FDC20C;}
	.st1{display:none;fill:none;stroke:#020303;stroke-width:14;stroke-miterlimit:10;}
	.st2{fill:none;stroke:#020303;stroke-width:14;stroke-miterlimit:10;}
</style>
<g id="reglas">
</g>
<g id="Capa_1">
	<path class="st0" d="M38.5,475.1l401.7,401.7c14.9,14.9,39,14.9,53.9,0l395.4-395.4c14.9-14.9,14.9-39,0-53.9L487.8,25.8
		c-14.9-14.9-39-14.9-53.9,0L38.5,421.2C23.7,436.1,23.7,460.2,38.5,475.1z"/>
	<path class="st1" d="M71.8,474.1l366.5,366.5c14.9,14.9,39,14.9,53.9,0L853,479.9c14.9-14.9,14.9-39,0-53.9L486.4,59.5
		c-14.9-14.9-39-14.9-53.9,0L71.8,420.3C57,435.1,57,459.2,71.8,474.1z"/>
</g>
<g id="Capa_3">
	<path d="M442.9,834.3c1.7,2,3,3.6,5,6.1c-2.6,0.1-4.3,0.3-6,0.3c-8,0-16,0-24,0c-13.5,0-24.9-7.2-28.7-20.3
		c-2.5-8.6-7.3-14.8-13.4-20.7c-21.5-21.3-42.9-42.8-64.3-64.3c-2.5-2.5-5-4.3-8.7-3.7c-3.9,0.6-5.7-1.7-6-5
		c-0.5-6.1-4-10.1-8.1-14.2C209.5,633.3,130.4,554,51.2,474.8c-14.7-14.7-14.4-34,0.7-49.1C167.1,310.4,282.4,195,397.7,79.7
		c13.3-13.3,26.6-26.6,39.9-39.9c15.2-15.2,34.3-15.3,49.4-0.1c44.9,44.9,89.6,89.8,134.5,134.7c84.3,84.4,168.6,168.7,252.9,253.1
		c13.4,13.4,13.1,33.2-0.9,47.2c-38.5,38.6-77,77.1-115.5,115.6c-30.8,30.9-61.7,61.7-92.5,92.7c-1.5,1.5-3,3.8-3,5.8
		c-0.3,22.2-0.4,44.3-0.5,66.5c0,0.7,0.2,1.3,0.2,2c7.1,0.8,14.3,1.2,21.2,2.6c16.4,3.3,29.4,12,38.6,26.1c1.6,2.5,3.4,5,4.8,7.6
		c1.9,3.5,4,4.6,8.4,4c13.6-2,27.3-4.5,40.9,0.6c16,6,27.7,16.4,32.1,33.4c2,7.5,0.5,9.2-7.2,9.2c-9.3,0.9-18.3,1.9-28.3,1.9
		c-22,2-43.9-0.7-66,1c-19.8,1.6-39,2-60,1c-19.8,0.6-41,0-59.5-3.9c-18.2,0-27.3-12.5-21.9-30c4.6-14.7,15-24.9,26.9-33.8
		c13.7-10.3,23.8-14.5,41.5-17.7c0-14.4,0-28.8,0-44.4c-5.3,5.2-9.8,9.6-14.3,14.1c-26.4,26.4-52.8,52.7-78.9,79.3
		c-2.6,2.6-4.2,6.6-5.1,10.3c-3.2,12.5-15.1,22.2-27.9,22.3c-8.3,0-16.7,0-25,0c-1.6,0-3.2-0.2-5.6-0.3c1.7-2.3,3-3.9,4.4-5.7
		c-10.7-8.7-13.5-20.4-13.5-33.4c0.1-84.5,0.1-169,0.1-253.5c0-2.7,0-5.3,0-7.2c-3.8,0-7.3,0-11.4,0c0,1,0,2.9,0,4.8
		c0,86-0.1,172,0.1,258C456.4,815.6,453.1,826.1,442.9,834.3z M290.4,682.7c-1.8-14.6-3.4-27.7-4.9-40.9
		c-1.3-11.2-2.6-22.4-3.5-33.7c-0.8-11.2-2.5-22.5,0.7-33.7c5.3-18.5,14.6-33.9,32.9-42.1c4.4-1.9,5.3-4.1,5.3-8.4
		c-0.1-62.5,0-125-0.1-187.5c0-14.2,4-27,12.5-38.1c10.8-14,24.1-25.2,42.7-25.3c56.3-0.4,112.6-0.3,169-0.1
		c29.5,0.1,53.5,27.1,56.1,51.8c1.6,14.8,0.7,29.9,1,44.9c0,1.8,0.3,3.7,0.6,6.4c9.7-6,18.3-11.5,27.2-16.7c2.9-1.7,4-3.8,4-7.2
		c-0.1-43,0-86-0.2-129c0-2.6-1.3-5.9-3.2-7.7c-51.7-52-103.6-103.9-155.5-155.8c-9.5-9.5-15.9-9.4-25.3,0.1
		c-34.4,34.5-68.8,69-103.3,103.5c-91.9,92-183.7,183.9-275.6,275.9c-8,8-7.9,15.1,0.2,23.3c65.1,65.1,130.1,130.2,195.2,195.3
		C273.9,665.6,281.7,673.8,290.4,682.7z M662.6,341.5c3.5,0.3,7,0.1,10,1c16,4.6,22.5,27.4,11.2,40.4c-5,5.7-11,10.7-17.1,15.2
		c-3.6,2.6-4.6,5.3-4.6,9.5c0.1,80.1,0.1,160.3,0.1,240.4c0,1.6,0,3.2,0,5.8c2-1.9,3.3-3.1,4.6-4.3c62.5-62.5,125-125.1,187.5-187.6
		c7.5-7.5,7.4-15-0.2-22.6c-62.4-62.5-124.9-125-187.3-187.5c-1.2-1.2-2.5-2.4-4.2-4C662.6,279.6,662.6,310.5,662.6,341.5z M537,779
		c1.6-1.4,2.3-2,3-2.6c30.4-30.4,60.8-60.8,91.1-91.3c1.5-1.5,2.4-4.3,2.4-6.5c0.1-83.8,0.1-167.7,0.1-251.5c0-1.2-0.2-2.4-0.4-4.2
		c-5.9,4.3-11.1,8.5-16.7,12c-12.5,7.5-24.7,15.9-38,21.6c-14.5,6.2-30.2-4.4-31.8-19.9c-0.7-7.1-1.1-14.3-1.2-21.4
		c-0.1-22.3,0-44.7-0.1-67c0-1.5,0.4-3.4-0.4-4.4c-1-1.4-2.9-3-4.4-2.9c-1.3,0.1-2.7,2.1-3.7,3.6c-0.5,0.7-0.1,1.9-0.1,2.9
		c0,141.8,0,283.6,0,425.5C537,774.5,537,776.2,537,779z M385.8,776.9c0-3.5,0-6.1,0-8.8c0-14,0-14,13.7-14.1
		c9.3-0.1,13.2-2.5,15.4-11.6c3-12.5,5.4-25.2,7.3-38c2.6-17.7,4.4-35.5,6.5-53.3c1.6-13.5,3.1-27,4.6-40.5
		c1.3-12.2,3.4-24.3,1.6-36.7c-4.1-27.4-18.3-47.3-43.7-58.6c-4.2-1.8-5.5-3.9-5.5-8.4c0.2-52.6,0.1-105.3,0.1-157.9
		c0-1.5,0.4-3.2-0.2-4.4c-0.7-1.6-2.5-3.9-3.5-3.8c-1.7,0.2-3.4,1.9-4.5,3.5c-0.6,0.9-0.2,2.6-0.2,3.9c0,58.5,0.1,117-0.1,175.4
		c0,5.3,0.9,8.5,6.6,9.2c1.4,0.2,2.8,1.1,4,1.9c18,11.2,25.9,28.5,26.3,48.7c0.3,16.2-2,32.4-3.5,48.6c-1.9,20-4.2,39.9-6.4,59.8
		c-1.2,11-2.5,22.1-4,33.1c-0.8,6.1-1.8,6.9-8,6.9c-15.7,0-31.3,0-47,0c-1.3,0-2.7,0.2-4.2,0.3C355.9,747,370.5,761.5,385.8,776.9z
		 M321.3,556c-11.4,7.1-16.9,17.2-18.1,30c-0.4,4.2,1.1,5.4,5.3,5.4c15.5-0.2,31-0.1,46.4-0.1c10.7,0,21.3-0.1,32,0.1
		c4,0.1,5.5-1.2,4.8-5.3c-0.5-3.1-0.4-6.3-1.2-9.4c-2.4-9-6.5-16.6-16.5-19.1C363,578.5,338.1,577.9,321.3,556z"/>
	<path d="M404.6,196.8c-0.6-31,26.6-58.5,59-58c29.1,0.5,56.6,24.2,57.4,56.7c0.9,33.9-26.6,60-58.1,60
		C429.1,255.5,403.7,227.3,404.6,196.8z"/>
</g>
<g id="Capa_4">
	<path class="st0" d="M848.1,1227.3H76.9c-17,0-30.7-13.8-30.7-30.7V869.8c0-17,13.8-30.7,30.7-30.7h771.2c17,0,30.7,13.8,30.7,30.7
		v326.8C878.8,1213.6,865.1,1227.3,848.1,1227.3z"/>
	<path class="st2" d="M841.2,1203.2H84.2c-7.9,0-14.4-6.4-14.4-14.4V877.6c0-7.9,6.4-14.4,14.4-14.4h757.1c7.9,0,14.4,6.4,14.4,14.4
		v311.2C855.6,1196.7,849.2,1203.2,841.2,1203.2z"/>
	<path d="M498.7,960.7c0,16.3,0,34.5,0,53c-12.5,0-25.2,0-38.4,0c-0.1-1.7-0.3-3.3-0.3-4.9c0-33,0.1-66-0.1-99
		c0-4.5,1.4-5.7,5.7-5.5c9.7,0.3,19.3,0.2,29,0c3.5-0.1,5.4,1.2,7.1,4.1c11.2,18.8,22.5,37.6,32.2,53.7c-0.4-3.9-1.5-11-1.7-18
		c-0.3-11.7,0-23.3-0.2-35c-0.1-3.7,1.3-4.9,4.9-4.9c9.7,0.2,19.3,0.3,29,0c4.4-0.1,5.7,1.2,5.7,5.6c-0.2,30.2-0.1,60.3-0.1,90.5
		c0,2.8,0,5.5,0,8.3c0.2,0,0.5,0.1,0.7,0.1c3.6-10.6,7.3-21.2,10.9-31.8c8-23,16-46,23.8-69.1c1-2.8,2.3-3.6,5-3.6
		c12.5,0.1,25,0.1,37.5,0c3,0,4.5,1.2,5.4,3.9c9.5,27.8,19.1,55.5,28.6,83.2c2.5,7.2,4.9,14.3,7.6,22.2c-2.4,0.1-4.1,0.3-5.9,0.3
		c-10.2,0-20.3-0.3-30.5,0.1c-4.6,0.2-6.2-1.8-7.1-5.6c-0.2-1.1-0.5-2.3-0.8-3.4c-0.8-3.4-2.7-4.8-6.3-4.6c-6.7,0.3-13.3,0.2-20,0
		c-3.1-0.1-4.6,0.7-5.5,4.1c-2.5,9.4-2.7,9.3-12.4,9.3c-22.3,0-44.6-0.1-67,0.1c-3.4,0-5.4-1-7.1-4
		C518.5,993,508.1,976.1,498.7,960.7z M638.1,973.3c-2.4-10.2-4.7-19.9-7-30c-2.6,10-5.1,19.7-7.7,30
		C628.5,973.3,632.9,973.3,638.1,973.3z"/>
	<path d="M607.4,1159.9c4-11.7,8-23.4,12-35.1c7.6-21.9,15.2-43.8,22.6-65.8c0.9-2.6,2.1-3.7,4.9-3.7c12.7,0.2,25.3,0.1,38,0
		c2.8,0,4.1,0.9,5,3.6c7.8,22.8,15.7,45.5,23.5,68.2c3.7,10.7,7.4,21.3,11,32c0.6,1.7,0.9,3.4,1.5,5.9c-4.4,0-8.2,0-12,0
		c-6.2,0-12.3,0-18.5,0c-10.6,0-10.8,0.1-13.9-10.1c-0.9-3-2.4-3.8-5.3-3.8c-6.8,0.1-13.7,0.2-20.5,0c-3.2-0.1-4.6,0.9-5.5,4.1
		c-2.8,9.9-3,9.8-13.2,9.8c-21.2,0-42.3,0-63.5,0c-2,0-3.9,0-6.3,0c0-36.5,0-72.6,0-109.6c2.8,0,5.7,0,8.6,0c8.3,0,16.7,0.2,25-0.1
		c4.4-0.2,5.7,1.1,5.7,5.5c-0.2,32-0.1,64-0.1,96c0,1,0,1.9,0,2.9C606.9,1159.7,607.2,1159.8,607.4,1159.9z M666.2,1094
		c-2.7,10.5-5.1,20-7.7,30c5.2,0,9.8,0,14.7,0C670.9,1114,668.7,1104.5,666.2,1094z"/>
	<path d="M445.6,1055.4c6,36.5,11.9,72.6,17.9,109.6c-9.4,0-18,0-26.6,0c-1.5,0-3,0-4.5,0c-7,0-6.6-0.1-7.2-6.8
		c-1.4-14.8-3.2-29.6-4.8-44.4c-0.1-1.3-0.2-2.7-0.3-4.6c-5.2,17.4-10.3,34.2-15.3,51c-1,3.4-2.6,5.2-6.6,4.8
		c-5.3-0.4-10.7,0.1-16-0.2c-1.4-0.1-3.7-1.2-4-2.3c-5.4-17-10.6-34.2-15.8-51.3c-0.3-1.1-0.3-2.3-0.4-3.1
		c-2.1,18.5-4.2,37.4-6.3,56.5c-12.5,0-24.6,0-37.2,0c1.9-12.5,3.7-24.5,5.6-36.6c2.6-15.9,5.3-31.7,7.9-47.5
		c1.2-7.2,2.4-14.4,3.5-21.6c0.4-2.6,1.5-3.6,4.2-3.6c10.8,0.1,21.7,0.2,32.5,0c3,0,4.1,1.4,4.8,3.9c3.9,13.9,7.9,27.7,11.8,41.6
		c0.9,3.2,1.2,6.5,1.7,8.9c4.7-16.5,9.6-33.7,14.7-50.9c0.4-1.4,2.2-3.3,3.4-3.3C420.7,1055.3,432.9,1055.4,445.6,1055.4z"/>
	<path d="M452.8,960.4c1.3,31.5-23.5,53.3-49.8,55.7c-21,1.9-40-1.5-54.7-17.6c-16-17.6-17.9-38.6-10.5-60.2
		c6.8-20,22.3-31.5,42.8-34.5c20.8-3.1,40.9-0.6,56.9,15.5C448.6,930.5,453.2,944.1,452.8,960.4z M412.1,960c0-1.3,0.1-2.7,0-4
		c-1.3-11-9.2-18-19.3-17.6c-8.2,0.3-15.2,6.4-17.1,13.8c-2.6,10.3,0.2,20.5,7.1,25.3c6,4.2,12.7,4.5,19,1.5
		C409.5,975.3,412.2,968.2,412.1,960z"/>
	<path d="M328.8,1013.8c-35.4,0-69.8,0-105.5,0c15.8-25.8,31.2-50.9,46.7-76.1c-12.1,0-24.4,0-37.5,0c0-10.5-0.1-20.6,0.2-30.7
		c0-0.9,2.8-2.5,4.3-2.5c11.3-0.2,22.7-0.1,34-0.1c18.8,0,37.7,0,56.5,0c1.8,0,3.6,0,6.9,0c-15.9,26-31.1,50.9-46,75.2
		c11.6,0,23.7,0.1,35.9,0c3.3,0,4.7,0.9,4.7,4.5C328.6,993.8,328.8,1003.6,328.8,1013.8z"/>
	<path d="M467.5,1055.4c2.4,0,4.3,0,6.3,0c15.2,0,30.4,0.6,45.5-0.1c21.3-1.1,44.6,14.8,42.6,42.9c-1.2,16.9-11.1,30.8-27.2,33.4
		c-6.7,1.1-13.6,0.8-20.4,0.9c-7.4,0.1-7.4,0-7.4,7.4c0,8.1,0,16.3,0,24.8c-13.3,0-26.2,0-39.4,0
		C467.5,1128.4,467.5,1092.3,467.5,1055.4z M506.9,1094.2c0,9.4,0,9.2,5.6,9.5c9,0.4,11.4-4.4,11.5-9.7c0.1-5.5-3.8-8.3-11.1-8.3
		C506.9,1085.7,506.9,1085.7,506.9,1094.2z"/>
	<path d="M269.6,1164.7c-24.4,0-48.2,0-72.3,0c0-36.4,0-72.5,0-108.9c12.8,0,25.7,0,39.2,0c0.1,1.9,0.2,3.8,0.2,5.7
		c0,20.7,0.1,41.3-0.1,62c0,3.7,0.9,5,4.8,4.9c8-0.3,16-0.1,24-0.1c2.4,0,4.2,0.1,4.2,3.3C269.6,1142.4,269.6,1153.3,269.6,1164.7z"
		/>
	<path d="M275.6,1055.6c13,0,25.6,0,38.7,0c0,36.3,0,72.5,0,109c-12.7,0-25.5,0-38.7,0C275.6,1128.5,275.6,1092.3,275.6,1055.6z"/>
</g>
</svg>
